<svg id="Layer_1" data-name="Layer 1" xmlns="http://www.w3.org/2000/svg" xmlns:xlink="http://www.w3.org/1999/xlink" viewBox="0 0 132.91 175.31"><defs><style>.cls-1{fill:#498deb;}.cls-2{fill:url(#linear-gradient);}.cls-3{fill:url(#linear-gradient-2);}</style><linearGradient id="linear-gradient" x1="142.6" y1="184.44" x2="142.6" y2="94.78" gradientUnits="userSpaceOnUse"><stop offset="0.31" stop-color="#498deb"/><stop offset="0.67" stop-color="#498deb"/><stop offset="0.69" stop-color="#4395e7"/><stop offset="0.83" stop-color="#1fc0d2"/><stop offset="0.94" stop-color="#08dbc5"/><stop offset="1" stop-color="#00e5c0"/></linearGradient><linearGradient id="linear-gradient-2" x1="19.35" y1="7.7" x2="121.14" y2="91.56" gradientTransform="translate(21.84 1.4) rotate(5.48)" gradientUnits="userSpaceOnUse"><stop offset="0.22" stop-color="#498deb" stop-opacity="0.99"/><stop offset="0.68" stop-color="#498deb" stop-opacity="0.99"/><stop offset="0.75" stop-color="#33a7de" stop-opacity="0.99"/><stop offset="0.87" stop-color="#00e5c0"/><stop offset="1" stop-color="#00e5c0"/></linearGradient></defs><title>SasaAfyaLogo</title><path class="cls-1" d="M122.8,183.29c-.67.41-1.32.8-2,1.16-2.19,1.1-4.42,2.1-6.67,3a80.4,80.4,0,0,1-53.19,2,3.18,3.18,0,0,1-1.24-.73,3,3,0,0,1-.83-2.41.32.32,0,0,1,.36-.27q.91.21,1.86.39c1,.19,2,.36,3,.49s2,.25,3,.34,2,.15,3,.18,2,0,3,0,2-.05,3-.12,2-.16,3-.28,2-.26,3-.42,2-.36,2.93-.57,1.93-.46,2.89-.72,1.9-.54,2.84-.85,1.88-.65,2.8-1,1.84-.74,2.75-1.14,1.8-.83,2.69-1.28,1.71-.89,2.55-1.36l.08-.05c.87-.49,1.72-1,2.56-1.55s1.67-1.1,2.48-1.67,1.62-1.19,2.41-1.81,1.56-1.28,2.32-1.94,1.5-1.36,2.22-2.07,1.44-1.43,2.13-2.18,1.37-1.53,2-2.31,1.3-1.61,1.92-2.43,1.22-1.69,1.8-2.56,1.14-1.76,1.68-2.67,1-1.83,1.54-2.77a58.9,58.9,0,0,0,6-17.86.27.27,0,0,1,.16-.21,14.05,14.05,0,0,0,3.75-2.39.31.31,0,0,0,.09-.17,4.53,4.53,0,0,0,0-1.22C138.24,145.19,138.13,173.92,122.8,183.29Z" transform="translate(-31.64 -17.73)"/><path class="cls-2" d="M159.33,143.73A83.39,83.39,0,0,1,134.08,176a82.75,82.75,0,0,1-13.43,8.47c.64-.37,1.29-.75,2-1.16,15.33-9.37,15.44-38.1,11.85-49.4a6.3,6.3,0,0,0-1-2.58,12.85,12.85,0,0,0-1.52-1.84,21.23,21.23,0,0,0-2.39-2.08.26.26,0,0,1-.12-.19c-.07-.52-.12-1-.17-1.54a40.57,40.57,0,0,1,.12-8c.1-.85.24-1.7.4-2.55a42.52,42.52,0,0,1,5.14-13.44,13.67,13.67,0,0,1,22.22-2.1C167.8,112.12,165.52,129.74,159.33,143.73Z" transform="translate(-31.64 -17.73)"/><path class="cls-3" d="M154,80.61a10.39,10.39,0,0,1-5.82,8.16c-.7.33-1.43.66-2.19,1a85.93,85.93,0,0,1-42,7.08c-.55,0-1.18-.1-1.87-.17-8.56-.82-26.83-3.4-43.28-18C43.51,65,37.67,48,35.49,38.4h0c-.1-.48-.21-.94-.31-1.42-.27-1.16-.52-2.32-.78-3.49-.34-1.48-.66-3-1-4.45a3.67,3.67,0,0,1-.2-.87c-.07-.31-.14-.61-.2-.91l-.42-1.87c-.25-1.2-.53-2.39-.81-3.59a3.33,3.33,0,0,1,0-1.66,4.29,4.29,0,0,1,.19-.5l0-.05a3.24,3.24,0,0,1,.62-.89,3.41,3.41,0,0,1,2.31-.95h.43a.35.35,0,0,0,.18,0h0a19.29,19.29,0,0,1,6.26,1,20,20,0,0,1,5.48,2.84A20.18,20.18,0,0,1,51.63,26,18.93,18.93,0,0,1,52.89,28c.39.69.67,1.43,1,2.12a10.42,10.42,0,0,1,1,2.74C56.38,39.67,60.53,52.71,72,63c12.85,11.44,27.49,12.72,33.74,13.26a64.74,64.74,0,0,0,8.42.18A67.28,67.28,0,0,0,139.82,70a9.91,9.91,0,0,1,13.33,5A10.46,10.46,0,0,1,154,80.61Z" transform="translate(-31.64 -17.73)"/><path class="cls-1" d="M131.94,134.1a14.36,14.36,0,0,1-4.5,3c-6.25,2.93-17.49,5.11-32.19,3.33-19.56-2.36-34.83-9-34.13-14.9s17.14-8.71,36.7-6.34c16.72,2,27.75,7.17,32.34,12.3A10.78,10.78,0,0,1,131.94,134.1Z" transform="translate(-31.64 -17.73)"/></svg>