<svg id="Layer_1" data-name="Layer 1" xmlns="http://www.w3.org/2000/svg" viewBox="0 0 453.72 590.59"><defs><style>.cls-1,.cls-2,.cls-3{fill:#fff;}.cls-2{stroke:#2adeff;stroke-width:18px;}.cls-2,.cls-3{stroke-miterlimit:10;}.cls-3{stroke:#6aff5c;}</style></defs><title>SasaAfyaLogoWhite</title><path class="cls-1" d="M512,394.23a1.34,1.34,0,0,1-.6.12c-.25,0-.48,0-.73,0l.9-.11Z" transform="translate(-71.23 -82.71)"/><path class="cls-1" d="M512,394.23a1.34,1.34,0,0,1-.6.12c-.25,0-.48,0-.73,0h0a7.16,7.16,0,0,1,.93-.11Z" transform="translate(-71.23 -82.71)"/><path class="cls-1" d="M493.76,394.31" transform="translate(-71.23 -82.71)"/><path class="cls-2" d="M441.7,394.31" transform="translate(-71.23 -82.71)"/><path class="cls-1" d="M437.26,394.31" transform="translate(-71.23 -82.71)"/><path class="cls-1" d="M72.59,283.17a1.21,1.21,0,0,1-.6.12c-.25,0-.48,0-.73,0l.9-.11Z" transform="translate(-71.23 -82.71)"/><path class="cls-1" d="M72.59,283.17a1.21,1.21,0,0,1-.6.12c-.25,0-.48,0-.73,0h0c.3-.05.62-.09.93-.11Z" transform="translate(-71.23 -82.71)"/><path class="cls-3" d="M377.09,424.18" transform="translate(-71.23 -82.71)"/><path class="cls-1" d="M384.51,640.43c-2.26,1.38-4.46,2.68-6.62,3.9q-11.07,5.59-22.46,10a270.78,270.78,0,0,1-179.18,6.9,10.35,10.35,0,0,1-4.18-2.45,10,10,0,0,1-2.79-8.12,1,1,0,0,1,1.2-.91c2.06.46,4.15.91,6.25,1.31,3.35.64,6.72,1.2,10.1,1.66s6.74.85,10.13,1.13,6.75.5,10.14.6,6.74.16,10.11.09,6.71-.19,10.07-.42,6.69-.53,10-.92,6.64-.89,9.94-1.43,6.59-1.2,9.85-1.93,6.5-1.53,9.73-2.42,6.41-1.83,9.59-2.87,6.32-2.18,9.43-3.38,6.21-2.49,9.27-3.83,6.07-2.79,9.06-4.31,5.75-3,8.58-4.59l.28-.16q4.37-2.49,8.62-5.2t8.37-5.65q4.13-2.94,8.1-6.1c2.65-2.12,5.26-4.29,7.8-6.53s5.07-4.57,7.51-7,4.84-4.83,7.17-7.36,4.61-5.14,6.81-7.79,4.38-5.4,6.47-8.19,4.11-5.68,6.05-8.6,3.85-6,5.67-9,3.55-6.18,5.19-9.34a198.77,198.77,0,0,0,20.13-60.16.93.93,0,0,1,.56-.72c5.62-2.62,9.87-5.37,12.61-8a1,1,0,0,0,.3-.58,14.07,14.07,0,0,0,0-4.1C436.51,512.08,436.14,608.88,384.51,640.43Z" transform="translate(-71.23 -82.71)"/><path class="cls-1" d="M507.37,507.28A280.89,280.89,0,0,1,422.3,615.89a276.2,276.2,0,0,1-45.25,28.53c2.15-1.21,4.36-2.52,6.62-3.9,51.63-31.55,52-128.35,39.9-166.41a21,21,0,0,0-3.48-8.69,42.35,42.35,0,0,0-5.1-6.2,71.67,71.67,0,0,0-8.07-7,1,1,0,0,1-.39-.65c-.23-1.73-.42-3.46-.58-5.19a133.91,133.91,0,0,1,.42-27c.34-2.88.8-5.76,1.33-8.6A144,144,0,0,1,425,365.5c16.14-27.63,54.38-31.13,74.85-7.08C535.9,400.8,528.22,460.16,507.37,507.28Z" transform="translate(-71.23 -82.71)"/><path class="cls-1" d="M489.58,294.54A35,35,0,0,1,470,322c-2.36,1.12-4.83,2.25-7.4,3.37-32.95,14.53-82.34,29-141.52,23.88l-6.29-.57c-28.86-2.77-90.41-11.45-145.83-60.79C117.4,242,97.71,184.69,90.37,152.32h-.09c-.34-1.59-.71-3.17-1-4.76-.89-3.92-1.75-7.83-2.63-11.77-1.12-5-2.22-10-3.34-15a12.83,12.83,0,0,1-.65-2.94c-.23-1-.46-2-.69-3.06-.47-2.11-.94-4.19-1.4-6.29-.85-4-1.8-8.05-2.72-12.1a10.38,10.38,0,0,1,.59-7.27c0-.06.06-.11.09-.18a10.77,10.77,0,0,1,2.11-3,11.46,11.46,0,0,1,7.76-3.23c.21,0,.43,0,.64,0h.09c.24,0,.47,0,.72,0a1.18,1.18,0,0,0,.61-.06h0a65,65,0,0,1,21.09,3.46,67.95,67.95,0,0,1,33.24,24.42,63.72,63.72,0,0,1,4.23,6.56c1.32,2.32,2.28,4.79,3.52,7.13a34.63,34.63,0,0,1,3.36,9.22c4.88,23.12,18.86,67.05,57.64,101.6,43.31,38.55,92.62,42.87,113.67,44.69a216,216,0,0,0,28.38.59,226.73,226.73,0,0,0,86.3-21.65,33.39,33.39,0,0,1,44.92,17A35.29,35.29,0,0,1,489.58,294.54Z" transform="translate(-71.23 -82.71)"/><path class="cls-1" d="M379.22,440.91" transform="translate(-71.23 -82.71)"/><path class="cls-1" d="M400.4,638.66" transform="translate(-71.23 -82.71)"/><path class="cls-1" d="M415.34,474.74c-3.11,3.41-8.23,6.92-15.18,10.17-21.07,9.85-58.91,17.2-108.43,11.21-65.9-8-117.37-30.44-115-50.2s57.73-29.34,123.63-21.38c56.34,6.82,93.49,24.15,109,41.46A37.46,37.46,0,0,1,415.34,474.74Z" transform="translate(-71.23 -82.71)"/><path class="cls-1" d="M377.89,644.33c-8.23,4.68-15.64,8.11-22.46,10Q366.81,649.92,377.89,644.33Z" transform="translate(-71.23 -82.71)"/><path class="cls-1" d="M54.33,292.39" transform="translate(-71.23 -82.71)"/></svg>